HIERARCHY
ROOT Hips
{
  OFFSET 40.9192 92.6879 18.85
  CHANNELS 6 Xposition Yposition Zposition Zrotation Xrotation Yrotation
  JOINT LeftUpLeg
  {
    OFFSET 8.64259 1.95398 -2.38835
    CHANNELS 3 Zrotation Xrotation Yrotation
    JOINT LeftLeg
    {
      OFFSET 43.7702 0 0
      CHANNELS 3 Zrotation Xrotation Yrotation
      JOINT LeftFoot
      {
        OFFSET 40.6238 0 0
        CHANNELS 3 Zrotation Xrotation Yrotation
        JOINT LeftToeBase
        {
          OFFSET 12.7242 0 0
          CHANNELS 3 Zrotation Xrotation Yrotation
          End Site
          {
            OFFSET 0 0 0
          }
        }
      }
    }
  }
  JOINT RightUpLeg
  {
    OFFSET -8.2249 1.95398 -2.59336
    CHANNELS 3 Zrotation Xrotation Yrotation
    JOINT RightLeg
    {
      OFFSET 43.5653 0 0
      CHANNELS 3 Zrotation Xrotation Yrotation
      JOINT RightFoot
      {
        OFFSET 40.6238 0 0
        CHANNELS 3 Zrotation Xrotation Yrotation
        JOINT RightToeBase
        {
          OFFSET 12.7242 0 0
          CHANNELS 3 Zrotation Xrotation Yrotation
          End Site
          {
            OFFSET 0 0 0
          }
        }
      }
    }
  }
  JOINT Spine
  {
    OFFSET 0.165834 0.87714 6.61349
    CHANNELS 3 Zrotation Xrotation Yrotation
    JOINT Spine1
    {
      OFFSET 7.38963 1.71661e-005 0
      CHANNELS 3 Zrotation Xrotation Yrotation
      JOINT Spine2
      {
        OFFSET 11.9445 1.14441e-005 0
        CHANNELS 3 Zrotation Xrotation Yrotation
        JOINT Spine3
        {
          OFFSET 14.7254 4.19617e-005 0
          CHANNELS 3 Zrotation Xrotation Yrotation
          JOINT Spine4
          {
            OFFSET 10.9679 0 0
            CHANNELS 3 Zrotation Xrotation Yrotation
            JOINT RightShoulder
            {
              OFFSET 2.46616 -1.6653 3.69651
              CHANNELS 3 Zrotation Xrotation Yrotation
              JOINT RightArm
              {
                OFFSET 13.0012 0 0
                CHANNELS 3 Zrotation Xrotation Yrotation
                JOINT RightForeArm
                {
                  OFFSET 28.7848 1.52588e-005 0
                  CHANNELS 3 Zrotation Xrotation Yrotation
                  JOINT RightHand
                  {
                    OFFSET 26.5688 1.52588e-005 0
                    CHANNELS 3 Zrotation Xrotation Yrotation
                    End Site
                    {
                      OFFSET 0 0 0
                    }
                  }
                }
              }
            }
            JOINT LeftShoulder
            {
              OFFSET 2.38034 -1.29275 -3.7523
              CHANNELS 3 Zrotation Xrotation Yrotation
              JOINT LeftArm
              {
                OFFSET 16.3182 6.10351e-005 0
                CHANNELS 3 Zrotation Xrotation Yrotation
                JOINT LeftForeArm
                {
                  OFFSET 27.0901 0 0
                  CHANNELS 3 Zrotation Xrotation Yrotation
                  JOINT LeftHand
                  {
                    OFFSET 24.5451 1.52588e-005 0
                    CHANNELS 3 Zrotation Xrotation Yrotation
                    End Site
                    {
                      OFFSET 0 0 0
                    }
                  }
                }
              }
            }
            JOINT Neck
            {
              OFFSET 5.0226 -0.0266342 0
              CHANNELS 3 Zrotation Xrotation Yrotation
              JOINT Head
              {
                OFFSET 6.69363 2.86102e-005 0
                CHANNELS 3 Zrotation Xrotation Yrotation
                End Site
                {
                  OFFSET 0 0 0
                }
              }
            }
          }
        }
      }
    }
  }
}
MOTION
Frames:	9
Frame Time:	0.0416667
-45.5859 22.4406 -59.863 -10.1684 -28.4873 39.8056 -164.02 -5.35007 91.5618 -8.0753 -4.06657 -2.16178 38.9837 -6.38406 -2.30384 42.3514 14.4947 32.4841 133.435 65.3717 94.8467 -104.707 -2.57647 -1.093 55.4667 -0.63944 -0.31415 47.2224 -1.11136 -20.8766 1.80622 7.69567 -91.5479 11.5177 2.86972 -3.37734 -0.154808 2.7184 -3.50023 -22.6958 3.75174 -2.3589 -2.68312 3.75175 -2.35889 92.6571 -22.5551 -104.022 -1.97071 3.93071 -18.43 -28.1764 15.1375 -123.136 -56.072 -2.69286 1.4986 -78.841 -15.0425 94.2861 -35.4911 -37.5222 -46.3813 40.3016 -17.1326 -121.974 22.7973 5.64013 20.9011 6.37986 4.17954 11.8416 40.4532 1.42549 -0.98474 
-44.4875 23.2533 -55.6302 -5.47169 -26.3128 42.1213 -163.843 -4.07117 94.9149 -7.82058 -1.6226 -2.63486 28.259 -14.81 -7.95181 33.6345 2.69499 30.5144 149.873 53.8393 78.7356 -91.6811 -12.8159 1.8664 58.3315 -0.502802 -0.144903 57.7934 -2.24334 -19.2339 1.73119 7.54337 -90.8897 11.8134 3.02466 -2.09311 0.144114 2.92963 -2.22423 -22.4145 3.51372 -1.08662 -2.4018 3.51373 -1.08662 96.5306 -8.81467 -99.8022 16.3668 35.1621 -30.7933 -17.6411 1.85782 -120.932 -44.7168 -0.177234 -3.27235 -80.4065 -16.2587 90.547 -27.5057 -21.8766 -48.8481 49.3524 -24.308 -116.231 20.865 5.43425 22.0176 9.46921 2.30928 8.58726 37.1333 -0.391859 -2.1432 
-42.3275 22.8571 -49.6876 0.61188 -22.8359 48.1551 -160.533 -1.76625 102.017 -11.7518 2.00711 -2.28841 32.0628 -12.667 -7.5014 27.7691 -2.29233 11.4849 156.225 35.2979 74.7055 -68.444 -1.63966 5.91881 74.0206 -5.51787 -2.71773 58.1641 -1.32247 -14.4316 1.55389 7.49021 -90.4674 11.9093 2.86967 -1.24212 0.24078 2.81224 -1.36728 -22.3191 3.11022 -0.321482 -2.30647 3.11021 -0.321483 98.5326 3.28407 -99.2219 37.5571 50.2723 -49.0734 -11.399 -6.68061 -104.91 -33.4973 0.355107 -5.73428 -84.032 -21.3833 83.0409 -14.6749 -10.7861 -49.4993 55.8646 -29.8758 -110.957 16.0496 3.95747 20.2286 12.9916 -0.238683 3.76964 33.6865 -1.93915 -2.3351 
-40.3118 22.2572 -43.5642 6.77303 -17.6543 53.5784 -158.09 9.3112 109.747 -30.2172 0.235245 -4.46056 45.3248 -7.34319 -2.57212 37.334 6.77036 3.51811 160.959 18.3648 74.8622 -42.2829 11.6261 6.12896 77.7011 -6.16579 -2.83442 58.3868 -1.58377 -15.6318 1.03281 7.45892 -89.8541 11.9585 2.12246 0.0635744 0.289305 2.1232 -0.029924 -22.2586 2.00517 0.698778 -2.24591 2.00516 0.698766 99.8862 12.2299 -98.1396 42.0998 49.7935 -55.4713 -6.0057 1.90181 -80.7722 -26.7224 0.559563 -7.68736 -88.7532 -24.6111 73.8491 -3.84113 -2.38862 -44.5256 60.2399 -34.286 -107.898 19.1286 4.95635 21.6647 16.019 -3.06349 -1.38873 30.4325 -3.78567 -3.70258 
-38.5611 22.0946 -36.2979 11.0031 -7.37424 57.7703 -158.349 27.9246 115.321 -54.8253 10.4675 -4.62902 54.011 -2.91113 2.74453 47.0989 14.5219 1.37788 165.401 8.03859 79.8698 -28.2218 5.62551 2.27641 64.7267 -3.32001 -1.83672 58.0548 -1.2898 -14.2625 0.526205 7.27681 -89.202 12.3096 1.42441 1.43248 0.638712 1.48606 1.36841 -21.8932 0.928091 1.79427 -1.8806 0.928109 1.79427 100.201 6.79923 -92.5661 49.4986 48.464 -55.4691 -5.90932 0.985832 -85.7286 -28.7627 0.489376 -7.2659 -95.565 -30.0871 62.9339 1.61384 -3.6568 -38.5599 59.3502 -37.2833 -110.067 23.7613 6.5519 23.7033 18.0314 -8.09009 -8.34074 28.5203 -6.24723 -2.43775 
-36.7242 21.1693 -28.3323 16.5133 4.69392 59.3855 -159.988 48.8379 117.413 -81.7933 18.1636 -2.03867 60.6329 2.7907 7.16604 48.7823 17.0676 7.74891 169.559 1.14705 84.5609 -20.9467 -0.850348 -0.564536 53.8326 -2.27867 -1.34664 49.577 0.0141866 -3.50854 -0.60814 7.34134 -88.5413 12.1889 -0.518239 2.96914 0.514634 -0.387116 2.98904 -21.9986 -1.38631 2.67649 -1.98594 -1.38632 2.6765 99.8956 -10.5225 -89.2623 56.8668 50.2569 -57.3118 -16.6638 -1.58773 -104.777 -22.9327 -0.314756 -3.18575 -97.5904 -31.6613 60.0452 11.4802 2.72395 -36.319 59.3439 -40.7447 -109.466 21.2513 5.94106 23.9151 16.3974 -11.5432 -11.6212 27.9124 -9.42093 -4.2893 
-35.8637 18.935 -20.7814 18.1767 10.625 59.0897 -151.127 69.0856 113.837 -101.626 29.5168 0.254761 63.1808 5.19434 10.2546 53.1916 22.5734 13.7134 173.157 0.77376 87.2354 -19.2547 -6.06844 -2.38877 46.6766 -1.76267 -0.972287 28.6504 -0.613761 13.8645 -1.10379 7.11431 -87.9025 12.6508 -1.19196 4.31944 0.973088 -1.00087 4.36758 -21.5205 -2.43417 3.76286 -1.50785 -2.43419 3.76284 99.0594 -19.989 -89.594 56.9889 53.876 -52.0978 -15.1985 -1.4511 -114.942 -19.8022 -0.0890336 -4.19031 -99.3208 -33.126 57.7595 19.0042 9.14171 -31.0803 60.9631 -44.3264 -108.34 21.4913 6.06861 24.1988 12.0827 -12.928 -16.6962 30.5673 -9.89724 -3.43838 
-35.6133 17.7234 -15.7251 20.585 12.2113 55.0822 -116.617 78.9642 79.756 -116.319 36.1382 3.37816 62.0075 4.1522 12.587 55.5482 25.739 16.3773 174.282 1.31416 86.2219 -23.2135 -16.3662 -5.39225 42.7032 0.227756 0.756514 25.4039 -0.838467 7.01175 -1.43924 7.2284 -87.1315 12.4247 -1.49667 5.90623 0.740963 -1.23574 5.96608 -21.7139 -3.20034 5.1867 -1.70121 -3.20035 5.18667 98.8405 -22.6027 -89.8334 58.056 53.9799 -45.4912 -16.1267 -2.09911 -123.741 -21.2793 0.082314 -4.71755 -98.82 -33.8176 58.9739 20.7841 12.0913 -26.5989 50.6422 -45.4721 -117.13 25.5023 6.8267 23.061 11.3441 -13.4297 -18.4368 31.393 -10.2345 -3.68617 
-34.9055 17.92 -13.5837 21.0245 8.25174 52.2815 -111.37 78.9787 74.2128 -118.289 34.2561 4.10187 57.3956 -0.653017 9.42524 53.3462 24.883 20.7114 174.319 1.69563 84.8554 -26.7888 -18.7974 -7.45722 39.8313 2.0191 2.48497 21.262 -0.59914 1.68008 -1.58173 7.28464 -86.6957 12.3056 -1.57687 6.77421 0.617674 -1.27793 6.83666 -21.8087 -3.53645 5.99201 -1.79603 -3.53644 5.99202 98.2471 -20.0461 -91.6585 62.2199 47.1247 -42.8966 -17.4261 0.207154 -128.511 -22.3855 -0.703758 -0.675913 -99.886 -37.6455 59.0377 21.5722 12.6595 -15.9145 45.8648 -48.9865 -123.731 29.9005 7.02717 19.8913 12.0909 -11.7659 -16.4644 29.3 -9.72572 -6.44964 
